<svg xmlns="http://www.w3.org/2000/svg" xmlns:xlink="http://www.w3.org/1999/xlink" width="500" zoomAndPan="magnify" viewBox="0 0 375 374.999991" height="500" preserveAspectRatio="xMidYMid meet" version="1.0"><path fill="#ffffff" d="M 150.011719 143.75 C 150.011719 144.160156 149.972656 144.566406 149.890625 144.96875 C 149.8125 145.371094 149.695312 145.761719 149.535156 146.140625 C 149.378906 146.519531 149.1875 146.882812 148.960938 147.222656 C 148.730469 147.5625 148.472656 147.878906 148.183594 148.167969 C 147.890625 148.460938 147.574219 148.71875 147.234375 148.945312 C 146.894531 149.175781 146.535156 149.367188 146.152344 149.523438 C 145.773438 149.679688 145.382812 149.800781 144.980469 149.878906 C 144.578125 149.960938 144.171875 150 143.761719 150 C 143.351562 150 142.945312 149.960938 142.542969 149.878906 C 142.140625 149.800781 141.75 149.679688 141.371094 149.523438 C 140.992188 149.367188 140.632812 149.175781 140.289062 148.945312 C 139.949219 148.71875 139.632812 148.460938 139.34375 148.167969 C 139.054688 147.878906 138.792969 147.5625 138.566406 147.222656 C 138.335938 146.882812 138.144531 146.519531 137.988281 146.140625 C 137.832031 145.761719 137.710938 145.371094 137.632812 144.96875 C 137.550781 144.566406 137.511719 144.160156 137.511719 143.75 C 137.511719 143.339844 137.550781 142.933594 137.632812 142.53125 C 137.710938 142.128906 137.832031 141.738281 137.988281 141.359375 C 138.144531 140.980469 138.335938 140.617188 138.566406 140.277344 C 138.792969 139.9375 139.054688 139.621094 139.34375 139.332031 C 139.632812 139.039062 139.949219 138.78125 140.289062 138.554688 C 140.632812 138.324219 140.992188 138.132812 141.371094 137.976562 C 141.75 137.820312 142.140625 137.699219 142.542969 137.621094 C 142.945312 137.539062 143.351562 137.5 143.761719 137.5 C 144.171875 137.5 144.578125 137.539062 144.980469 137.621094 C 145.382812 137.699219 145.773438 137.820312 146.152344 137.976562 C 146.535156 138.132812 146.894531 138.324219 147.234375 138.554688 C 147.574219 138.78125 147.890625 139.039062 148.183594 139.332031 C 148.472656 139.621094 148.730469 139.9375 148.960938 140.277344 C 149.1875 140.617188 149.378906 140.980469 149.535156 141.359375 C 149.695312 141.738281 149.8125 142.128906 149.890625 142.53125 C 149.972656 142.933594 150.011719 143.339844 150.011719 143.75 Z M 150.011719 143.75 " fill-opacity="1" fill-rule="nonzero"/><path fill="#ffffff" d="M 168.761719 156.25 C 168.761719 156.660156 168.722656 157.066406 168.640625 157.46875 C 168.5625 157.871094 168.445312 158.261719 168.285156 158.640625 C 168.128906 159.019531 167.9375 159.382812 167.710938 159.722656 C 167.480469 160.0625 167.222656 160.378906 166.933594 160.667969 C 166.640625 160.960938 166.324219 161.21875 165.984375 161.445312 C 165.644531 161.675781 165.285156 161.867188 164.902344 162.023438 C 164.523438 162.179688 164.132812 162.300781 163.730469 162.378906 C 163.328125 162.460938 162.921875 162.5 162.511719 162.5 C 162.101562 162.5 161.695312 162.460938 161.292969 162.378906 C 160.890625 162.300781 160.5 162.179688 160.121094 162.023438 C 159.742188 161.867188 159.382812 161.675781 159.039062 161.445312 C 158.699219 161.21875 158.382812 160.960938 158.09375 160.667969 C 157.804688 160.378906 157.542969 160.0625 157.316406 159.722656 C 157.085938 159.382812 156.894531 159.019531 156.738281 158.640625 C 156.582031 158.261719 156.460938 157.871094 156.382812 157.46875 C 156.300781 157.066406 156.261719 156.660156 156.261719 156.25 C 156.261719 155.839844 156.300781 155.433594 156.382812 155.03125 C 156.460938 154.628906 156.582031 154.238281 156.738281 153.859375 C 156.894531 153.480469 157.085938 153.117188 157.316406 152.777344 C 157.542969 152.4375 157.804688 152.121094 158.09375 151.832031 C 158.382812 151.539062 158.699219 151.28125 159.039062 151.054688 C 159.382812 150.824219 159.742188 150.632812 160.121094 150.476562 C 160.5 150.320312 160.890625 150.199219 161.292969 150.121094 C 161.695312 150.039062 162.101562 150 162.511719 150 C 162.921875 150 163.328125 150.039062 163.730469 150.121094 C 164.132812 150.199219 164.523438 150.320312 164.902344 150.476562 C 165.285156 150.632812 165.644531 150.824219 165.984375 151.054688 C 166.324219 151.28125 166.640625 151.539062 166.933594 151.832031 C 167.222656 152.121094 167.480469 152.4375 167.710938 152.777344 C 167.9375 153.117188 168.128906 153.480469 168.285156 153.859375 C 168.445312 154.238281 168.5625 154.628906 168.640625 155.03125 C 168.722656 155.433594 168.761719 155.839844 168.761719 156.25 Z M 168.761719 156.25 " fill-opacity="1" fill-rule="nonzero"/><path fill="#ffffff" d="M 175.011719 131.25 C 175.011719 131.660156 174.972656 132.066406 174.890625 132.46875 C 174.8125 132.871094 174.695312 133.261719 174.535156 133.640625 C 174.378906 134.019531 174.1875 134.382812 173.960938 134.722656 C 173.730469 135.0625 173.472656 135.378906 173.183594 135.667969 C 172.890625 135.960938 172.574219 136.21875 172.234375 136.445312 C 171.894531 136.675781 171.535156 136.867188 171.152344 137.023438 C 170.773438 137.179688 170.382812 137.300781 169.980469 137.378906 C 169.578125 137.460938 169.171875 137.5 168.761719 137.5 C 168.351562 137.5 167.945312 137.460938 167.542969 137.378906 C 167.140625 137.300781 166.75 137.179688 166.371094 137.023438 C 165.992188 136.867188 165.632812 136.675781 165.289062 136.445312 C 164.949219 136.21875 164.632812 135.960938 164.34375 135.667969 C 164.054688 135.378906 163.792969 135.0625 163.566406 134.722656 C 163.335938 134.382812 163.144531 134.019531 162.988281 133.640625 C 162.832031 133.261719 162.710938 132.871094 162.632812 132.46875 C 162.550781 132.066406 162.511719 131.660156 162.511719 131.25 C 162.511719 130.839844 162.550781 130.433594 162.632812 130.03125 C 162.710938 129.628906 162.832031 129.238281 162.988281 128.859375 C 163.144531 128.480469 163.335938 128.117188 163.566406 127.777344 C 163.792969 127.4375 164.054688 127.121094 164.34375 126.832031 C 164.632812 126.539062 164.949219 126.28125 165.289062 126.054688 C 165.632812 125.824219 165.992188 125.632812 166.371094 125.476562 C 166.75 125.320312 167.140625 125.199219 167.542969 125.121094 C 167.945312 125.039062 168.351562 125 168.761719 125 C 169.171875 125 169.578125 125.039062 169.980469 125.121094 C 170.382812 125.199219 170.773438 125.320312 171.152344 125.476562 C 171.535156 125.632812 171.894531 125.824219 172.234375 126.054688 C 172.574219 126.28125 172.890625 126.539062 173.183594 126.832031 C 173.472656 127.121094 173.730469 127.4375 173.960938 127.777344 C 174.1875 128.117188 174.378906 128.480469 174.535156 128.859375 C 174.695312 129.238281 174.8125 129.628906 174.890625 130.03125 C 174.972656 130.433594 175.011719 130.839844 175.011719 131.25 Z M 175.011719 131.25 " fill-opacity="1" fill-rule="nonzero"/><path fill="#ffffff" d="M 181.261719 225 C 112.519531 225 57.980469 201.363281 42.175781 167.457031 C 39.101562 181.039062 37.511719 195.050781 37.511719 209.375 C 37.511719 300.699219 102 375 181.261719 375 C 260.523438 375 325.011719 300.699219 325.011719 209.375 C 325.011719 195.050781 323.425781 181.042969 320.351562 167.457031 C 304.542969 201.363281 250 225 181.261719 225 Z M 175.011719 331.25 C 123.320312 331.25 81.261719 289.195312 81.261719 237.5 C 81.261719 234.050781 84.0625 231.25 87.511719 231.25 C 90.960938 231.25 93.761719 234.050781 93.761719 237.5 C 93.761719 282.300781 130.210938 318.75 175.011719 318.75 C 178.460938 318.75 181.261719 321.550781 181.261719 325 C 181.261719 328.449219 178.460938 331.25 175.011719 331.25 Z M 175.011719 331.25 " fill-opacity="1" fill-rule="nonzero"/><path fill="#ffffff" d="M 357.019531 55.488281 L 318.625 17.09375 C 310.207031 8.667969 298.460938 4.664062 286.695312 6.230469 C 274.84375 7.773438 264.574219 14.65625 258.523438 25.074219 L 223.539062 84.761719 C 224.992188 85.007812 226.46875 85.199219 227.914062 85.46875 C 212.851562 82.675781 197.148438 81.25 181.261719 81.25 C 150.738281 81.25 123.050781 86.261719 100.988281 94.695312 L 85.117188 63.269531 C 84.898438 62.570312 84.585938 61.90625 84.15625 61.335938 C 83.054688 58.4375 84.929688 54.507812 88.554688 52.414062 C 92.382812 50.207031 97.28125 50.851562 98.898438 53.65625 C 100.0625 55.664062 102.15625 56.78125 104.320312 56.78125 C 104.355469 56.78125 104.375 56.789062 104.4375 56.78125 C 107.886719 56.78125 110.6875 53.980469 110.6875 50.53125 C 110.6875 49.105469 110.210938 47.800781 109.414062 46.75 C 108.3125 43.851562 110.1875 39.925781 113.820312 37.832031 C 117.613281 35.625 122.511719 36.25 124.144531 39.054688 C 124.144531 39.0625 124.144531 39.0625 124.148438 39.070312 C 125.3125 41.074219 127.40625 42.195312 129.570312 42.195312 C 129.605469 42.195312 129.636719 42.1875 129.6875 42.195312 C 133.136719 42.195312 135.9375 39.394531 135.9375 35.945312 C 135.9375 34.367188 135.355469 32.929688 134.394531 31.832031 C 122.574219 12.167969 101.105469 0 78.085938 0 C 66.632812 0 55.300781 3.042969 45.332031 8.800781 C 30.148438 17.570312 19.292969 31.71875 14.757812 48.648438 C 10.21875 65.582031 12.542969 83.269531 21.3125 98.445312 C 22.476562 100.449219 24.570312 101.570312 26.730469 101.570312 C 27.789062 101.570312 28.867188 101.300781 29.851562 100.730469 C 32.84375 99.007812 33.863281 95.179688 32.136719 92.195312 C 32.136719 92.195312 32.136719 92.1875 32.136719 92.1875 C 30.8125 89.863281 33.480469 84.207031 38.039062 81.574219 C 41.855469 79.375 46.761719 80.011719 48.375 82.820312 C 49.539062 84.824219 51.632812 85.945312 53.792969 85.945312 C 53.832031 85.945312 53.863281 85.945312 53.914062 85.945312 C 57.363281 85.945312 60.164062 83.144531 60.164062 79.695312 C 60.164062 78.269531 59.6875 76.957031 58.886719 75.914062 C 58.304688 74.375 58.664062 72.832031 58.960938 71.980469 C 59.664062 69.992188 61.238281 68.179688 63.289062 66.992188 C 67.105469 64.789062 71.980469 65.429688 73.613281 68.21875 L 89.460938 99.605469 C 65.03125 111.457031 50.007812 128.113281 50.007812 146.867188 C 50.007812 183.667969 107.65625 212.492188 181.257812 212.492188 C 254.855469 212.492188 312.507812 183.667969 312.507812 146.867188 C 312.507812 125.761719 294.042969 107.011719 261.226562 94.601562 L 261.230469 94.601562 L 291.03125 43.761719 L 292.101562 43.613281 L 292.105469 43.601562 L 330.5 81.992188 C 337.582031 89.082031 349.945312 89.074219 357.019531 82 C 360.5625 78.457031 362.511719 73.75 362.511719 68.738281 C 362.511719 63.726562 360.5625 59.03125 357.019531 55.488281 Z M 287.511719 146.875 C 287.511719 163.4375 246.117188 187.5 181.261719 187.5 C 116.40625 187.5 75.011719 163.4375 75.011719 146.875 C 75.011719 139.085938 84.257812 129.664062 100.695312 121.835938 L 113.179688 146.5625 C 113.476562 147.148438 113.863281 147.65625 114.292969 148.101562 C 114.375 148.179688 114.476562 148.238281 114.5625 148.3125 C 115.019531 148.730469 115.519531 149.0625 116.0625 149.324219 C 116.242188 149.414062 116.417969 149.488281 116.605469 149.5625 C 117.292969 149.820312 118.007812 149.992188 118.742188 149.992188 C 118.75 149.992188 118.75 149.992188 118.757812 149.992188 C 119.488281 149.992188 120.226562 149.820312 120.9375 149.550781 C 121.0625 149.5 121.1875 149.46875 121.3125 149.414062 C 121.394531 149.375 121.488281 149.363281 121.570312 149.320312 C 121.84375 149.179688 122.019531 148.945312 122.269531 148.769531 C 122.636719 148.507812 123.011719 148.273438 123.320312 147.945312 C 123.59375 147.644531 123.773438 147.300781 123.980469 146.960938 C 124.195312 146.617188 124.417969 146.300781 124.5625 145.917969 C 124.71875 145.5 124.761719 145.0625 124.824219 144.617188 C 124.867188 144.320312 125 144.050781 125 143.738281 C 125 143.664062 124.960938 143.605469 124.957031 143.539062 C 124.945312 143.125 124.804688 142.730469 124.710938 142.324219 C 124.613281 141.914062 124.554688 141.492188 124.382812 141.117188 C 124.351562 141.054688 124.355469 140.988281 124.324219 140.925781 L 112.257812 117.023438 C 130.03125 110.679688 153.46875 106.25 181.261719 106.25 C 192.480469 106.25 203.539062 106.992188 214.125 108.460938 L 240.34375 113.960938 C 268.300781 122.0625 287.511719 135.550781 287.511719 146.875 Z M 287.511719 146.875 " fill-opacity="1" fill-rule="nonzero"/></svg>